<?xml version="1.0" standalone="no"?><!DOCTYPE svg PUBLIC "-//W3C//DTD SVG 1.1//EN" "http://www.w3.org/Graphics/SVG/1.1/DTD/svg11.dtd"><svg class="icon" width="50px" height="50.00px" viewBox="0 0 1024 1024" version="1.1" xmlns="http://www.w3.org/2000/svg"><path fill="#e6e6e6" d="M833.024 919.552c-72.704 0-132.096-59.392-132.096-132.096s59.392-132.096 132.096-132.096 132.096 59.392 132.096 132.096-59.392 132.096-132.096 132.096z m0-212.992c-44.544 0-80.896 36.352-80.896 80.896s36.352 80.896 80.896 80.896 80.896-36.352 80.896-80.896-36.352-80.896-80.896-80.896z"  /><path fill="#e6e6e6" d="M831.488 690.176c-14.336 0-25.6-11.264-25.6-25.6v-38.912c0-14.336 11.264-25.6 25.6-25.6s25.6 11.264 25.6 25.6v38.912c0 14.336-11.264 25.6-25.6 25.6zM744.448 726.528c-6.656 0-12.8-2.56-17.92-7.168l-27.648-27.136c-10.24-9.728-10.24-26.112-0.512-36.352s26.112-10.24 36.352-0.512l27.648 27.136c10.24 9.728 10.24 26.112 0.512 36.352-5.12 5.12-11.776 7.68-18.432 7.68zM708.608 814.08h-37.376c-14.336 0-25.6-11.264-25.6-25.6s11.264-25.6 25.6-25.6h37.376c14.336 0 25.6 11.264 25.6 25.6s-11.264 25.6-25.6 25.6zM717.824 928.256c-6.656 0-13.312-2.56-18.432-7.68-9.728-10.24-9.728-26.112 0.512-36.352l28.16-27.648c10.24-9.728 26.112-9.728 36.352 0.512 9.728 10.24 9.728 26.112-0.512 36.352l-28.16 27.648c-5.12 4.608-11.264 7.168-17.92 7.168zM834.048 975.872c-14.336 0-25.6-11.264-25.6-25.6V911.36c0-14.336 11.264-25.6 25.6-25.6s25.6 11.264 25.6 25.6v38.912c0 14.336-11.264 25.6-25.6 25.6zM948.224 927.744c-6.656 0-13.312-2.56-17.92-7.68l-27.648-27.648c-10.24-10.24-10.24-26.112 0-36.352s26.112-10.24 36.352 0l27.648 27.648c10.24 10.24 10.24 26.112 0 36.352-5.12 5.12-11.776 7.68-18.432 7.68zM995.328 812.032h-38.4c-14.336 0-25.6-11.264-25.6-25.6s11.264-25.6 25.6-25.6h38.4c14.336 0 25.6 11.264 25.6 25.6s-11.264 25.6-25.6 25.6zM920.064 724.992c-6.656 0-12.8-2.56-17.92-7.168-10.24-9.728-10.24-26.112-0.512-36.352l27.648-28.16c9.728-10.24 26.112-10.24 36.352-0.512s10.24 26.112 0.512 36.352l-27.648 28.16c-5.12 5.12-11.776 7.68-18.432 7.68zM334.848 246.272H232.96c-14.336 0-25.6-11.264-25.6-25.6s11.264-25.6 25.6-25.6h101.888c14.336 0 25.6 11.264 25.6 25.6s-11.264 25.6-25.6 25.6zM591.36 246.272H489.472c-14.336 0-25.6-11.264-25.6-25.6s11.264-25.6 25.6-25.6h101.888c14.336 0 25.6 11.264 25.6 25.6s-11.264 25.6-25.6 25.6zM334.848 500.224H232.96c-14.336 0-25.6-11.264-25.6-25.6s11.264-25.6 25.6-25.6h101.888c14.336 0 25.6 11.264 25.6 25.6s-11.264 25.6-25.6 25.6zM591.36 500.224H489.472c-14.336 0-25.6-11.264-25.6-25.6s11.264-25.6 25.6-25.6h101.888c14.336 0 25.6 11.264 25.6 25.6s-11.264 25.6-25.6 25.6zM334.848 741.376H232.96c-14.336 0-25.6-11.264-25.6-25.6s11.264-25.6 25.6-25.6h101.888c14.336 0 25.6 11.264 25.6 25.6s-11.264 25.6-25.6 25.6zM591.36 741.376H489.472c-14.336 0-25.6-11.264-25.6-25.6s11.264-25.6 25.6-25.6h101.888c14.336 0 25.6 11.264 25.6 25.6s-11.264 25.6-25.6 25.6z"  /><path fill="#e6e6e6" d="M414.72 998.4H40.96c-14.336 0-25.6-11.264-25.6-25.6V56.32c0-14.336 11.264-25.6 25.6-25.6h747.52c14.336 0 25.6 11.264 25.6 25.6v358.4c0 14.336-11.264 25.6-25.6 25.6s-25.6-11.264-25.6-25.6V81.92H66.56v865.28h348.16c14.336 0 25.6 11.264 25.6 25.6s-11.264 25.6-25.6 25.6z"  /></svg>