<?xml version="1.0" standalone="no"?><!DOCTYPE svg PUBLIC "-//W3C//DTD SVG 1.1//EN" "http://www.w3.org/Graphics/SVG/1.1/DTD/svg11.dtd"><svg class="icon" width="50px" height="50.00px" viewBox="0 0 1024 1024" version="1.1" xmlns="http://www.w3.org/2000/svg"><path fill="#e6e6e6" d="M514.617561 1023.997965c-124.969575 0-222.883706-69.893063-222.883706-159.198372l0-31.841669 445.76442 0 0 31.841669C737.498274 954.105899 639.614069 1023.997965 514.617561 1023.997965zM364.868942 896.64226c22.419847 36.694731 81.96337 63.683339 149.748618 63.683339 67.788241 0 127.301837-26.988608 149.751611-63.683339L364.868942 896.64226zM197.331086 857.398799c-17.538854 0-31.776829-14.180117-31.841669-31.716976l-1.117252-342.715919c0-160.167987 107.864653-295.551942 254.722383-337.249367L419.094547 79.920396c0-41.943818 41.948806-74.81296 95.522016-74.81296 53.57321 0 95.525008 32.869142 95.525008 74.81296l0 65.765218c146.823813 41.667498 254.722383 176.831993 254.722383 336.720667l0 190.610099c0 17.596712-14.23997 31.841669-31.841669 31.841669s-31.841669-14.244957-31.841669-31.841669L801.180616 482.407278c0-157.836722-128.543782-286.254813-286.564052-286.254813S228.052511 324.788021 228.052511 482.873132l1.119247 342.559304c0.062845 17.6017-14.147198 31.90651-31.748898 31.966363C197.392933 857.398799 197.361012 857.398799 197.331086 857.398799zM482.745965 132.471121l63.713265 0 0-52.550725c-1.092313-2.859964-12.284779-11.132614-31.841669-11.132614-19.464118 0-30.721425 8.366419-31.903517 11.661313L482.745965 132.471121zM960.384973 896.64226 68.850149 896.64226c-17.598707 0-31.841669-14.23997-31.841669-31.841669s14.241965-31.841669 31.841669-31.841669l891.534824 0c17.596712 0 31.836682 14.23997 31.836682 31.841669S977.986673 896.64226 960.384973 896.64226z" /></svg>