<?xml version="1.0" standalone="no"?><!DOCTYPE svg PUBLIC "-//W3C//DTD SVG 1.1//EN" "http://www.w3.org/Graphics/SVG/1.1/DTD/svg11.dtd"><svg class="icon" width="50px" height="50.00px" viewBox="0 0 1024 1024" version="1.1" xmlns="http://www.w3.org/2000/svg"><path fill="#e6e6e6" d="M906.62748 793.016899H112.858193c-51.914769 0-94.048494-42.133725-94.048494-94.048493V139.944159C18.809699 88.02939 60.943424 45.895665 112.858193 45.895665h793.769287c51.914769 0 94.048494 42.133725 94.048494 94.048494v559.024247c0 51.914769-42.133725 94.048494-94.048494 94.048493zM112.858193 106.086701c-18.809699 0-33.857458 15.047759-33.857458 33.857458v559.024247c0 18.809699 15.047759 33.857458 33.857458 33.857457h793.769287c18.809699 0 33.857458-15.047759 33.857458-33.857457V139.944159c0-18.809699-15.047759-33.857458-33.857458-33.857458H112.858193z"  /><path fill="#e6e6e6" d="M337.82219 261.078619H158.00147c-12.790595 0-22.571639-9.781043-22.571639-22.571639s9.781043-22.571639 22.571639-22.571638h179.82072c12.790595 0 22.571639 9.781043 22.571638 22.571638 0 12.038207-10.533431 22.571639-22.571638 22.571639zM651.567965 261.078619h-225.716385c-12.790595 0-22.571639-9.781043-22.571639-22.571639s9.781043-22.571639 22.571639-22.571638h226.468773c12.790595 0 22.571639 9.781043 22.571638 22.571638-0.752388 12.038207-10.533431 22.571639-23.324026 22.571639zM858.474651 261.078619H734.330639c-12.790595 0-22.571639-9.781043-22.571638-22.571639s9.781043-22.571639 22.571638-22.571638h124.144012c12.790595 0 22.571639 9.781043 22.571638 22.571638 0 12.038207-10.533431 22.571639-22.571638 22.571639zM261.831007 392.74651H158.00147c-12.790595 0-22.571639-9.781043-22.571639-22.571639s9.781043-22.571639 22.571639-22.571638h104.581925c12.790595 0 22.571639 9.781043 22.571638 22.571638s-10.533431 22.571639-23.324026 22.571639zM556.014695 395.756062h-218.192505c-12.790595 0-22.571639-9.781043-22.571639-22.571639s9.781043-22.571639 22.571639-22.571638h218.192505c12.790595 0 22.571639 9.781043 22.571639 22.571638s-9.781043 22.571639-22.571639 22.571639zM858.474651 395.756062H637.272594c-12.790595 0-22.571639-9.781043-22.571639-22.571639s9.781043-22.571639 22.571639-22.571638h221.202057c12.790595 0 22.571639 9.781043 22.571638 22.571638s-10.533431 22.571639-22.571638 22.571639zM415.318148 515.385746H158.00147c-12.790595 0-22.571639-9.781043-22.571639-22.571639s9.781043-22.571639 22.571639-22.571638h258.069066c12.790595 0 22.571639 9.781043 22.571639 22.571638s-10.533431 22.571639-23.324027 22.571639zM697.46363 515.385746H510.871418c-12.790595 0-22.571639-9.781043-22.571638-22.571639s9.781043-22.571639 22.571638-22.571638h186.592212c12.790595 0 22.571639 9.781043 22.571638 22.571638s-9.781043 22.571639-22.571638 22.571639zM858.474651 515.385746h-77.495959c-12.790595 0-22.571639-9.781043-22.571638-22.571639s9.781043-22.571639 22.571638-22.571638h77.495959c12.790595 0 22.571639 9.781043 22.571638 22.571638s-10.533431 22.571639-22.571638 22.571639zM305.469508 638.77737H158.00147c-12.790595 0-22.571639-9.781043-22.571639-22.571639s9.781043-22.571639 22.571639-22.571638h147.468038c12.790595 0 22.571639 9.781043 22.571638 22.571638s-10.533431 22.571639-22.571638 22.571639zM510.871418 638.77737H376.946363c-12.790595 0-22.571639-9.781043-22.571639-22.571639s9.781043-22.571639 22.571639-22.571638h133.172667c12.790595 0 22.571639 9.781043 22.571639 22.571638s-9.781043 22.571639-21.819251 22.571639zM489.052168 1018.733284c-12.790595 0-22.571639-9.781043-22.571639-22.571638v-205.401911c0-12.790595 9.781043-22.571639 22.571639-22.571638s22.571639 9.781043 22.571638 22.571638v205.401911c0 12.790595-9.781043 22.571639-22.571638 22.571638zM841.169728 979.609111c-6.771492 0-12.790595-3.009552-17.304923-8.276268l-162.515797-193.363703c-8.276267-9.781043-6.771492-24.076414 3.009552-31.600294 9.781043-8.276267 24.076414-6.771492 31.600294 3.009552l162.515797 193.363703c8.276267 9.781043 6.771492 24.076414-3.009552 31.600294-3.76194 3.009552-9.028655 5.266716-14.295371 5.266716zM154.991918 984.875827c-5.266716 0-10.533431-1.504776-14.295371-5.266716-9.781043-8.276267-10.533431-22.571639-3.009552-31.600294l167.030125-199.382807c8.276267-9.781043 22.571639-10.533431 31.600294-3.009552 9.781043 8.276267 10.533431 22.571639 3.009551 31.600294l-167.030124 199.382807c-4.514328 5.266716-11.285819 8.276267-17.304923 8.276268zM511.623806 146.71565c-16.552535 0-30.095518-13.542983-30.095518-30.095518l0.752388-81.257898c0-16.552535 13.542983-30.095518 30.095518-30.095518s30.095518 13.542983 30.095518 30.095518L541.719324 116.620132c0 16.552535-13.542983 30.095518-30.095518 30.095518z"  /></svg>